<?xml version="1.0" standalone="yes"?>
<svg xmlns="http://www.w3.org/2000/svg" width="748" height="295">
<path style="fill:#000000; stroke:none;" d="M0 0L0 295L748 295L748 0L0 0z"/>
<path style="fill:#00b4b4; stroke:none;" d="M206 161C195.695 168.045 186.495 175.73 174 178.761C168.162 180.177 161.946 180.433 156 179.572C150.837 178.824 145.679 177.355 141 175.008C109.538 159.226 114.743 115.654 126.425 89C133.095 73.7811 147.305 57.7664 165 56.7492C175.665 56.1362 184.536 59.7191 194 64C183.286 50.0331 161.853 44.0011 145 44C132.304 43.9992 120.53 45.6056 109 51.3704C78.6749 66.5329 62.4691 100.98 68.463 134C77.6121 184.403 136.642 212.212 181 185.985C190.746 180.223 201.797 171.868 206 161z"/>
<path style="fill:#989898; stroke:none;" d="M312 49C314.89 50.213 317.874 49.9983 321 50C318.11 48.7871 315.126 49.0017 312 49z"/>
<path style="fill:#9d9d9d; stroke:none;" d="M632 49C633.769 49.7789 635.036 49.9124 637 50C635.231 49.2211 633.964 49.0876 632 49z"/>
<path style="fill:#939393; stroke:none;" d="M303.667 50.3333C303.222 50.7777 304.278 50.7223 304.333 50.6667C304.778 50.2221 303.722 50.2779 303.667 50.3333z"/>
<path style="fill:#757575; stroke:none;" d="M305 50.4282C251.254 58.128 233.033 129.977 264.518 170C280.01 189.694 305.005 195.83 329 192.711C385.27 185.395 400.728 107.523 365.711 69.0394C350.691 52.5334 326.409 47.3612 305 50.4282M624 50.4645C598.616 55.0412 582.382 88.6578 602.185 108.826C615.231 122.113 635.894 121.516 651 131.093C658.53 135.868 665.398 143.49 664.536 153C662.225 178.465 637.28 191.744 614 182.934C608.365 180.802 603.721 177.606 599 173.935C596.814 172.236 594.08 169.812 591.113 171.137C582.85 174.827 594.706 182.997 598 185.135C608.233 191.779 621.789 195.155 634 193.715C642.289 192.736 650.044 190.577 657 185.779C662.706 181.844 667.236 176.325 670.096 170C672.291 165.143 672.647 160.195 673.285 155C673.75 151.207 674.098 147.8 673.381 144C669.235 122.013 644.497 117.967 627 111.189C615.431 106.707 602.782 99.1089 603.054 85C603.481 62.8622 628.572 53.7119 647 59.7492C651.838 61.3341 655.734 64.0155 660 66.6705C661.936 67.8755 664.353 69.2361 666.601 67.9282C673.882 63.6933 662.273 56.9683 659 55.2623C648.705 49.896 635.459 48.3985 624 50.4645z"/>
<path style="fill:#a8a8a8; stroke:none;" d="M644.667 50.3333C644.222 50.7779 645.278 50.7222 645.333 50.6667C645.778 50.2223 644.722 50.2777 644.667 50.3333M334 51L335 52L334 51z"/>
<path style="fill:#757575; stroke:none;" d="M418 51L418 192L426 192L426 67C432.922 76.6937 438.386 87.6534 444.281 98C452.477 112.386 460.941 126.62 469.15 141C472.588 147.022 476.102 153.001 479.579 159C481.383 162.111 483.152 165.817 487.001 166.663C490.81 167.5 492.957 164.871 494.796 161.981C498.278 156.507 501.199 150.632 504.421 145C519.07 119.395 535.525 93.7203 548 67C551.605 79.1962 549 95.289 549 108L549 192L557 192L557 51C554.17 51.0022 550.743 50.5656 548.185 52.0278C545.27 53.6946 543.768 57.1823 542.231 60C539.294 65.3815 536.19 70.6755 533.15 76C517.91 102.701 501.166 129.221 488 157C474.791 129.124 457.613 102.602 441.989 76C438.867 70.6836 435.774 65.3558 432.719 60C431.164 57.2744 429.612 53.6773 426.79 52.0278C424.263 50.5502 420.808 51.0022 418 51z"/>
<path style="fill:#a8a8a8; stroke:none;" d="M655 53L656 54L655 53z"/>
<path style="fill:#a3a3a3; stroke:none;" d="M657 54L658 55L657 54z"/>
<path style="fill:#2dc3c3; stroke:none;" d="M164 56C165.248 56.6848 165.548 56.7488 167 57C165.752 56.3152 165.452 56.2512 164 56z"/>
<path style="fill:#a8a8a8; stroke:none;" d="M285 56L286 57L285 56M283 57L284 58L283 57M306.667 58.3333C306.222 58.7777 307.278 58.7223 307.333 58.6667C307.778 58.2221 306.722 58.2778 306.667 58.3333z"/>
<path style="fill:#000000; stroke:none;" d="M308 58.4282C295.184 60.2684 282.797 65.9563 274.326 76.0039C248.469 106.672 255.644 168.7 297 182.251C306.019 185.206 316.621 185.915 326 184.572C337.471 182.928 348.65 178.398 356.826 169.91C387.321 138.251 377.409 69.8247 331 59.4252C323.583 57.763 315.547 57.3447 308 58.4282z"/>
<path style="fill:#8d8d8d; stroke:none;" d="M326.667 58.3333C326.222 58.7777 327.278 58.7223 327.333 58.6667C327.778 58.2221 326.722 58.2778 326.667 58.3333z"/>
<path style="fill:#a3a3a3; stroke:none;" d="M605 59L606 60L605 59z"/>
<path style="fill:#a8a8a8; stroke:none;" d="M278 60L279 61L278 60z"/>
<path style="fill:#a3a3a3; stroke:none;" d="M298 60L299 61L298 60M617 61L618 62L617 61z"/>
<path style="fill:#a8a8a8; stroke:none;" d="M615 62L616 63L615 62z"/>
<path style="fill:#a3a3a3; stroke:none;" d="M274 63L275 64L274 63z"/>
<path style="fill:#a8a8a8; stroke:none;" d="M434 63L435 64L434 63z"/>
<path style="fill:#a3a3a3; stroke:none;" d="M540 63L541 64L540 63z"/>
<path style="fill:#15bdbd; stroke:none;" d="M194 64L195 65L194 64z"/>
<path style="fill:#a8a8a8; stroke:none;" d="M344 64L345 65L344 64M657 64L658 65L657 64z"/>
<path style="fill:#15bdbd; stroke:none;" d="M195 65L196 66L195 65z"/>
<path style="fill:#00b4b4; stroke:none;" d="M196 66L197 67L196 66M197 67L198 68L197 67z"/>
<path style="fill:#a3a3a3; stroke:none;" d="M349 67L350 68L349 67z"/>
<path style="fill:#00b4b4; stroke:none;" d="M198 68L199 69L198 68z"/>
<path style="fill:#a8a8a8; stroke:none;" d="M662 68L663 69L662 68z"/>
<path style="fill:#2dc3c3; stroke:none;" d="M199.333 69.6667C199.278 69.7222 199.222 70.7778 199.667 70.3333C199.722 70.2778 199.778 69.2222 199.333 69.6667z"/>
<path style="fill:#a3a3a3; stroke:none;" d="M281 69L282 70L281 69z"/>
<path style="fill:#9d9d9d; stroke:none;" d="M548 69L548 192C551.206 184.361 549 172.271 549 164L549 100C549 90.9404 551.507 77.3574 548 69z"/>
<path style="fill:#a8a8a8; stroke:none;" d="M664.667 69.3333C664.222 69.778 665.278 69.7221 665.333 69.6667C665.778 69.2223 664.722 69.2776 664.667 69.3333z"/>
<path style="fill:#00b4b4; stroke:none;" d="M146 118C163.657 117.242 183.141 109.581 186.127 90C187.028 84.0852 188.016 76.8109 182.856 72.4336C176.454 67.0029 167.132 70.8784 162.093 76.0432C151.963 86.4277 146.119 103.645 146 118M200 70C200.872 75.0703 203.363 79.7667 203.425 85C203.654 104.257 191.342 117.373 174 123.934C167.77 126.291 160.661 127.903 154 127.996C151.301 128.034 147.042 127.357 145.604 130.318C144.252 133.102 145.438 137.118 145.873 140C148.661 158.431 165.166 164.127 182 161.7C189.49 160.62 197.281 156.98 202.714 151.699C206.47 148.048 209.025 143.371 213 140L212 150C216.255 144.312 217.326 135.907 218.155 129C220.521 109.296 215.51 83.7763 200 70z"/>
<path style="fill:#a3a3a3; stroke:none;" d="M438 70L439 71L438 70M536 70L537 71L536 70M354 71L355 72L354 71z"/>
<path style="fill:#a8a8a8; stroke:none;" d="M545 71L546 72L545 71z"/>
<path style="fill:#a3a3a3; stroke:none;" d="M265 72L266 73L265 72M355 72L356 73L355 72z"/>
<path style="fill:#a8a8a8; stroke:none;" d="M356 73L357 74L356 73M358 75L359 76L358 75M262 76L263 77L262 76M604 76L605 77L604 76M532 77L533 78L532 77z"/>
<path style="fill:#a3a3a3; stroke:none;" d="M434 80L435 81L434 80M270 81L271 82L270 81z"/>
<path style="fill:#a8a8a8; stroke:none;" d="M445 82L446 83L445 82z"/>
<path style="fill:#2dc3c3; stroke:none;" d="M203.333 85.6667C203.278 85.7222 203.222 86.7778 203.667 86.3333C203.722 86.2778 203.778 85.2222 203.333 85.6667M186.333 87.6667C186.278 87.7222 186.222 88.7778 186.667 88.3333C186.722 88.2778 186.778 87.2223 186.333 87.6667z"/>
<path style="fill:#a8a8a8; stroke:none;" d="M438 87L439 88L438 87M536 87L537 88L536 87z"/>
<path style="fill:#a3a3a3; stroke:none;" d="M266 88L267 89L266 88M378 90L379 91L378 90M523 93L524 94L523 93z"/>
<path style="fill:#a8a8a8; stroke:none;" d="M594 94L595 95L594 94M519 100L520 101L519 100z"/>
<path style="fill:#a3a3a3; stroke:none;" d="M596 100L597 101L596 100z"/>
<path style="fill:#a8a8a8; stroke:none;" d="M371 101L372 102L371 101z"/>
<path style="fill:#a3a3a3; stroke:none;" d="M456 101L457 102L456 101z"/>
<path style="fill:#a8a8a8; stroke:none;" d="M609 101L610 102L609 101M610 102L611 103L610 102M261 103L262 104L261 103M527 103L528 104L527 103M372 106L373 107L372 106z"/>
<path style="fill:#a3a3a3; stroke:none;" d="M449 106L450 107L449 106z"/>
<path style="fill:#989898; stroke:none;" d="M250.333 107.667C250.278 107.722 250.222 108.778 250.667 108.333C250.722 108.278 250.778 107.222 250.333 107.667z"/>
<path style="fill:#a3a3a3; stroke:none;" d="M260 108L261 109L260 108z"/>
<path style="fill:#989898; stroke:none;" d="M383.333 111.667C383.278 111.722 383.222 112.778 383.667 112.333C383.722 112.278 383.778 111.222 383.333 111.667z"/>
<path style="fill:#a8a8a8; stroke:none;" d="M605 111L606 112L605 111z"/>
<path style="fill:#2dc3c3; stroke:none;" d="M67.3333 113.667C67.2778 113.722 67.2222 114.778 67.6667 114.333C67.7223 114.278 67.7777 113.222 67.3333 113.667z"/>
<path style="fill:#a3a3a3; stroke:none;" d="M373 113L373 116C373.696 114.446 373.696 114.554 373 113z"/>
<path style="fill:#a8a8a8; stroke:none;" d="M463 113L464 114L463 113z"/>
<path style="fill:#2dc3c3; stroke:none;" d="M118.333 115.667C118.278 115.722 118.222 116.778 118.667 116.333C118.722 116.278 118.778 115.222 118.333 115.667z"/>
<path style="fill:#a3a3a3; stroke:none;" d="M510 116L511 117L510 116z"/>
<path style="fill:#2dc3c3; stroke:none;" d="M151.667 117.333C151.222 117.778 152.278 117.722 152.333 117.667C152.778 117.222 151.722 117.278 151.667 117.333z"/>
<path style="fill:#a8a8a8; stroke:none;" d="M647 118L648 119L647 118z"/>
<path style="fill:#a3a3a3; stroke:none;" d="M249 119L249 124C249.83 121.969 249.83 121.031 249 119z"/>
<path style="fill:#a8a8a8; stroke:none;" d="M518 119L519 120L518 119z"/>
<path style="fill:#a3a3a3; stroke:none;" d="M467 120L468 121L467 120z"/>
<path style="fill:#a8a8a8; stroke:none;" d="M626 121L627 122L626 121z"/>
<path style="fill:#2dc3c3; stroke:none;" d="M117 123L117 129C117.951 126.715 117.951 125.285 117 123z"/>
<path style="fill:#a8a8a8; stroke:none;" d="M506 123L507 124L506 123M632 123L633 124L632 123z"/>
<path style="fill:#a3a3a3; stroke:none;" d="M460 125L461 126L460 125z"/>
<path style="fill:#2dc3c3; stroke:none;" d="M158 127C159.248 127.685 159.548 127.749 161 128C159.752 127.315 159.452 127.251 158 127z"/>
<path style="fill:#a3a3a3; stroke:none;" d="M373 127L373 130C373.696 128.446 373.696 128.554 373 127z"/>
<path style="fill:#a8a8a8; stroke:none;" d="M650 130L651 131L650 130M667 131L668 132L667 131M464 132L465 133L464 132M474 132L475 133L474 132z"/>
<path style="fill:#a3a3a3; stroke:none;" d="M250.333 134.667C250.278 134.722 250.222 135.778 250.667 135.333C250.722 135.278 250.778 134.222 250.333 134.667z"/>
<path style="fill:#939393; stroke:none;" d="M260.333 134.667C260.278 134.722 260.222 135.778 260.667 135.333C260.722 135.278 260.778 134.222 260.333 134.667z"/>
<path style="fill:#a3a3a3; stroke:none;" d="M669 134L670 135L669 134z"/>
<path style="fill:#a8a8a8; stroke:none;" d="M509 135L510 136L509 135z"/>
<path style="fill:#2dc3c3; stroke:none;" d="M117.333 137.667C117.278 137.722 117.222 138.778 117.667 138.333C117.722 138.278 117.778 137.222 117.333 137.667M145 137L145 140C145.696 138.446 145.696 138.554 145 137z"/>
<path style="fill:#a3a3a3; stroke:none;" d="M382 138L383 139L382 138z"/>
<path style="fill:#2dc3c3; stroke:none;" d="M211.667 140.333C211.222 140.778 212.278 140.722 212.333 140.667C212.778 140.222 211.722 140.278 211.667 140.333z"/>
<path style="fill:#a8a8a8; stroke:none;" d="M381 143L382 144L381 143z"/>
<path style="fill:#a3a3a3; stroke:none;" d="M663 144L664 145L663 144M493 146L494 147L493 146z"/>
<path style="fill:#2dc3c3; stroke:none;" d="M119.333 147.667C119.278 147.722 119.222 148.778 119.667 148.333C119.722 148.278 119.778 147.222 119.333 147.667z"/>
<path style="fill:#a3a3a3; stroke:none;" d="M664 148L664 151C664.696 149.446 664.696 149.554 664 148z"/>
<path style="fill:#a8a8a8; stroke:none;" d="M254 151L255 152L254 151z"/>
<path style="fill:#a3a3a3; stroke:none;" d="M475 151L476 152L475 151z"/>
<path style="fill:#a8a8a8; stroke:none;" d="M500 151L501 152L500 151z"/>
<path style="fill:#a3a3a3; stroke:none;" d="M265 152L266 153L265 152z"/>
<path style="fill:#939393; stroke:none;" d="M673 153L673 157C673.71 155.24 673.71 154.759 673 153z"/>
<path style="fill:#a8a8a8; stroke:none;" d="M487.667 156.333C487.222 156.778 488.278 156.722 488.333 156.667C488.778 156.222 487.722 156.278 487.667 156.333M365 157L366 158L365 157z"/>
<path style="fill:#a3a3a3; stroke:none;" d="M376 157L377 158L376 157z"/>
<path style="fill:#a8a8a8; stroke:none;" d="M257 158L258 159L257 158M268 158L269 159L268 158M479 158L480 159L479 158z"/>
<path style="fill:#2dc3c3; stroke:none;" d="M207 159L208 160L207 159z"/>
<path style="fill:#a8a8a8; stroke:none;" d="M375 159L376 160L375 159z"/>
<path style="fill:#15bdbd; stroke:none;" d="M206 160L207 161L206 160z"/>
<path style="fill:#2dc3c3; stroke:none;" d="M166.667 161.333C166.222 161.778 167.278 161.722 167.333 161.667C167.778 161.222 166.722 161.278 166.667 161.333z"/>
<path style="fill:#a3a3a3; stroke:none;" d="M362 162L363 163L362 162M492 165L493 166L492 165M359 166L360 167L359 166z"/>
<path style="fill:#a8a8a8; stroke:none;" d="M484 166L485 167L484 166z"/>
<path style="fill:#989898; stroke:none;" d="M487 167C488.248 167.685 488.548 167.749 490 168C488.752 167.315 488.452 167.251 487 167z"/>
<path style="fill:#a8a8a8; stroke:none;" d="M268 174L269 175L268 174M282 174L283 175L282 174M656 174L657 175L656 174M667 174L668 175L667 174M285 176L286 177L285 176z"/>
<path style="fill:#a3a3a3; stroke:none;" d="M612 182L613 183L612 182M279 183L280 184L279 183z"/>
<path style="fill:#a8a8a8; stroke:none;" d="M306.667 184.333C306.222 184.778 307.278 184.722 307.333 184.667C307.778 184.222 306.722 184.278 306.667 184.333z"/>
<path style="fill:#8d8d8d; stroke:none;" d="M326.667 184.333C326.222 184.778 327.278 184.722 327.333 184.667C327.778 184.222 326.722 184.278 326.667 184.333z"/>
<path style="fill:#a8a8a8; stroke:none;" d="M352 184L353 185L352 184z"/>
<path style="fill:#a3a3a3; stroke:none;" d="M618 184L619 185L618 184M658 184L659 185L658 184z"/>
<path style="fill:#a8a8a8; stroke:none;" d="M623 185C624.506 185.683 625.315 185.826 627 186C625.494 185.317 624.685 185.174 623 185z"/>
<path style="fill:#8a8a8a; stroke:none;" d="M631 185C632.769 185.779 634.036 185.912 636 186C634.231 185.221 632.964 185.088 631 185z"/>
<path style="fill:#a3a3a3; stroke:none;" d="M600 186L601 187L600 186z"/>
<path style="fill:#a8a8a8; stroke:none;" d="M344 188L345 189L344 188M645 191L646 192L645 191z"/>
<path style="fill:#939393; stroke:none;" d="M303.667 192.333C303.222 192.778 304.278 192.722 304.333 192.667C304.778 192.222 303.722 192.278 303.667 192.333z"/>
<path style="fill:#8a8a8a; stroke:none;" d="M311 193C312.506 193.683 313.315 193.826 315 194C313.494 193.317 312.685 193.174 311 193z"/>
<path style="fill:#8d8d8d; stroke:none;" d="M318 193C319.248 193.685 319.548 193.749 321 194C319.752 193.315 319.452 193.251 318 193z"/>
<path style="fill:#a8a8a8; stroke:none;" d="M321.667 193.333C321.222 193.778 322.278 193.722 322.333 193.667C322.778 193.222 321.722 193.278 321.667 193.333z"/>
<path style="fill:#8a8a8a; stroke:none;" d="M621 193C622.769 193.779 624.036 193.912 626 194C624.231 193.221 622.964 193.088 621 193z"/>
<path style="fill:#a8a8a8; stroke:none;" d="M635.667 193.333C635.222 193.778 636.278 193.722 636.333 193.667C636.778 193.222 635.722 193.278 635.667 193.333M77.6667 237.333C77.2222 237.778 78.2778 237.722 78.3333 237.667C78.7778 237.222 77.7222 237.278 77.6667 237.333M119.667 237.333C119.222 237.778 120.278 237.722 120.333 237.667C120.778 237.222 119.722 237.278 119.667 237.333z"/>
<path style="fill:#939393; stroke:none;" d="M145 237C146.954 245.443 150.33 254.153 154 262C155.855 255.727 149.652 241.283 145 237z"/>
<path style="fill:#8d8d8d; stroke:none;" d="M230 237C231.769 237.779 233.036 237.912 235 238C233.231 237.221 231.964 237.088 230 237z"/>
<path style="fill:#a8a8a8; stroke:none;" d="M279 237C285.445 239.704 295.032 238 302 238C295.555 235.296 285.968 237 279 237M319 237C324.469 239.295 332.099 238 338 238C332.531 235.705 324.901 237 319 237z"/>
<path style="fill:#989898; stroke:none;" d="M363 264C360.21 260.967 356.67 258.16 355.587 254C353.634 246.498 360.917 239.405 368 238.793C371.815 238.464 375.431 239.859 379 241C373.097 234.799 361.083 236.098 356.148 243.185C350.989 250.595 354.425 261.586 363 264z"/>
<path style="fill:#8d8d8d; stroke:none;" d="M421 237L421 265C423.604 258.793 423.604 243.207 421 237M442 237L442 265C444.321 259.468 442.88 251.952 443.015 246C443.091 242.633 443.853 239.871 442 237z"/>
<path style="fill:#939393; stroke:none;" d="M494 264C491.233 260.969 487.843 258.091 486.667 254C484.423 246.19 491.558 239.182 499 238.757C503.899 238.477 507.685 241.224 512 243C506.189 235.646 492.686 234.515 487.009 243.105C482.053 250.604 485.413 261.583 494 264z"/>
<path style="fill:#8d8d8d; stroke:none;" d="M533 237L533 265L550 265C545.276 263.018 539.09 264 534 264C534 255.976 536.109 244.409 533 237z"/>
<path style="fill:#989898; stroke:none;" d="M575 237.533C565.688 239.782 559.948 251.859 566.434 259.895C570.695 265.175 578.735 266.105 584.996 264.442C593.765 262.113 596.82 250.413 591.991 243.105C588.539 237.882 580.82 236.128 575 237.533z"/>
<path style="fill:#939393; stroke:none;" d="M625 265C620.631 262.827 616.521 261.433 613.742 256.996C609.285 249.879 614.609 241.346 622 239.319C627.246 237.881 631.974 239.667 637 241C630.92 235.124 619.116 235.812 613.419 242.214C607.953 248.356 609.74 259.426 617.043 263.312C619.562 264.652 622.216 264.871 625 265z"/>
<path style="fill:#8d8d8d; stroke:none;" d="M77 238L77 265L95 265C90.2762 263.018 84.0901 264 79 264L79 238L77 238M118 238L116 245C117.656 243.314 118.251 242.254 119 240L121 240C121 241.797 121.014 241.521 122 243C122.438 239.892 120.831 238.886 118 238z"/>
<path style="fill:#9d9d9d; stroke:none;" d="M166 238C163.275 245.026 160.744 258.163 154 262L155 265L157 265C160.236 257.112 164.069 249.342 166 241L169 242L168 238L166 238z"/>
<path style="fill:#989898; stroke:none;" d="M187 238C185.09 246.059 181.893 254.691 178 262L172 247C170.498 252.415 175.241 259.799 177 265L179 265C182.935 256.586 186.859 247.037 189 238L187 238M228.667 238.333C228.222 238.778 229.278 238.722 229.333 238.667C229.778 238.222 228.722 238.278 228.667 238.333M235 238C236.588 239.627 238.078 240.774 240 242C238.627 239.453 237.782 238.812 235 238z"/>
<path style="fill:#8d8d8d; stroke:none;" d="M278 238C281.698 239.552 286.017 239 290 239L290 265C293.008 257.831 291 246.761 291 239L303 239C296.072 236.093 285.497 238 278 238M319 238L319 257C319.006 260.106 318.593 262.897 321 265C319.12 257.103 319.121 245.892 321 238L319 238z"/>
<path style="fill:#9d9d9d; stroke:none;" d="M321 238C325.974 240.087 332.638 239 338 239C333.026 236.913 326.362 238 321 238z"/>
<path style="fill:#a3a3a3; stroke:none;" d="M397 238L397 265C399.541 258.945 399.541 244.055 397 238z"/>
<path style="fill:#989898; stroke:none;" d="M398 238L398 265C400.685 258.601 400.687 244.404 398 238z"/>
<path style="fill:#9d9d9d; stroke:none;" d="M465 238L465 262C461.653 257.89 458.348 254.065 454 251C456.557 256.491 461.494 262.378 467 265L467 238L465 238z"/>
<path style="fill:#000000; stroke:none;" d="M498 238.557C486.095 239.973 481.531 255.363 492.043 262.258C495.109 264.269 499.474 264.341 503 263.786C519.746 261.15 514.35 236.613 498 238.557z"/>
<path style="fill:#a8a8a8; stroke:none;" d="M534 238L534 264C536.477 258.097 536.477 243.903 534 238z"/>
<path style="fill:#000000; stroke:none;" d="M578 238.61C567.775 239.247 561.193 251.53 568.43 259.786C571.803 263.634 577.147 264.426 582 263.891C592.131 262.776 595.952 249.678 589.351 242.394C586.631 239.393 581.909 238.367 578 238.61z"/>
<path style="fill:#9d9d9d; stroke:none;" d="M653 238L657 245C657.72 241.63 655.825 239.683 653 238z"/>
<path style="fill:#939393; stroke:none;" d="M675 238C673.166 240.985 671.259 243.725 670 247C673.261 244.482 675.232 241.714 677 238L675 238M227 239L228 240L227 239z"/>
<path style="fill:#a8a8a8; stroke:none;" d="M291 239L291 265C293.477 259.097 293.477 244.903 291 239M320 239L320 250C321.431 246.59 321.431 242.41 320 239z"/>
<path style="fill:#989898; stroke:none;" d="M444 239C443.014 240.478 443 240.203 443 242C447.401 243.302 450.215 248.311 454 251C451.802 246.259 448.142 242.167 444 239M226 240C224.869 244.163 226.378 246.943 227 251L232 252C229.195 247.872 227.486 244.675 226 240z"/>
<path style="fill:#a3a3a3; stroke:none;" d="M169 242L170 247C170.651 244.766 170.318 243.926 169 242z"/>
<path style="fill:#989898; stroke:none;" d="M122 243C123.328 246.83 126.84 251.199 125 255C128.42 258.021 130.282 262.565 134 265C131.762 258.543 127.788 246.792 122 243z"/>
<path style="fill:#9d9d9d; stroke:none;" d="M511 243C513.987 251.074 513.823 260.262 504 263.347C500.836 264.341 497.273 264 494 264C499.083 266.133 506.608 265.427 510.786 261.606C515.777 257.041 517.068 247.025 511 243z"/>
<path style="fill:#8d8d8d; stroke:none;" d="M658 244C659.619 248.27 663.055 251.686 664.437 256C665.342 258.828 665 262.07 665 265C666.759 260.807 666.158 255.537 667 251L664 252C662.568 248.622 660.841 246.319 658 244z"/>
<path style="fill:#9d9d9d; stroke:none;" d="M115 245C112.758 250.385 109.619 255.379 108 261L114 256C113.751 251.843 115.431 248.78 117 245L115 245z"/>
<path style="fill:#939393; stroke:none;" d="M669 247C668.043 248.516 667.613 249.339 667 251C668.63 249.485 669.163 249.145 669 247z"/>
<path style="fill:#a8a8a8; stroke:none;" d="M225.667 251.333C225.222 251.778 226.278 251.722 226.333 251.667C226.778 251.222 225.722 251.278 225.667 251.333z"/>
<path style="fill:#a3a3a3; stroke:none;" d="M321 251C325.217 252.769 330.459 252 335 252C330.784 250.231 325.541 251 321 251M400 251C405.715 253.398 413.831 252 420 252C414.285 249.602 406.169 251 400 251z"/>
<path style="fill:#8d8d8d; stroke:none;" d="M225 264C222.361 259.171 222.361 256.829 225 252C219.23 255.028 219.23 260.972 225 264z"/>
<path style="fill:#989898; stroke:none;" d="M232 252C233.836 254.447 235.237 255.701 238 257C236.164 254.553 234.763 253.299 232 252z"/>
<path style="fill:#a8a8a8; stroke:none;" d="M320 252L320 264C321.512 260.396 321.512 255.604 320 252z"/>
<path style="fill:#a3a3a3; stroke:none;" d="M244.333 253.667C244.278 253.722 244.222 254.778 244.667 254.333C244.722 254.278 244.778 253.222 244.333 253.667z"/>
<path style="fill:#8d8d8d; stroke:none;" d="M630 253C632.332 253.985 634.457 253.981 637 254L637 262C638.213 259.11 637.998 256.126 638 253L630 253z"/>
<path style="fill:#a8a8a8; stroke:none;" d="M636 254C636.003 257.306 635.399 260.727 638 263C637.282 259.993 637.195 256.82 636 254z"/>
<path style="fill:#9d9d9d; stroke:none;" d="M664 254L664 265C665.431 261.59 665.431 257.41 664 254M243.333 255.667C243.278 255.722 243.222 256.778 243.667 256.333C243.722 256.278 243.778 255.222 243.333 255.667z"/>
<path style="fill:#989898; stroke:none;" d="M238 257L239 258L238 257z"/>
<path style="fill:#a3a3a3; stroke:none;" d="M242 257C240.521 257.986 240.797 258 239 258C240.522 258.855 242.945 259.288 242 257z"/>
<path style="fill:#8d8d8d; stroke:none;" d="M240 259L240 261L242 261L242 259L240 259z"/>
<path style="fill:#a3a3a3; stroke:none;" d="M242 260C243.535 262.796 245.034 263.826 248 265C246.173 262.782 244.486 261.455 242 260z"/>
<path style="fill:#8d8d8d; stroke:none;" d="M107 261L106 265C107.87 263.771 108.224 263.132 109 261L107 261z"/>
<path style="fill:#9d9d9d; stroke:none;" d="M239 261L240 262L239 261M375 263C377.509 263.566 378.22 262.848 380 261L375 263M237.667 262.333C237.222 262.778 238.278 262.722 238.333 262.667C238.778 262.222 237.722 262.278 237.667 262.333M235.667 263.333C235.222 263.778 236.278 263.722 236.333 263.667C236.778 263.222 235.722 263.278 235.667 263.333z"/>
<path style="fill:#939393; stroke:none;" d="M633 263C634.248 263.685 634.548 263.749 636 264C634.752 263.315 634.452 263.251 633 263z"/>
<path style="fill:#989898; stroke:none;" d="M225 264C226.506 264.683 227.315 264.826 229 265C227.494 264.317 226.685 264.174 225 264z"/>
<path style="fill:#a3a3a3; stroke:none;" d="M231 264C232.506 264.683 233.315 264.826 235 265C233.494 264.317 232.685 264.174 231 264z"/>
<path style="fill:#9d9d9d; stroke:none;" d="M321 264C325.974 266.087 332.638 265 338 265C333.026 262.913 326.362 264 321 264z"/>
<path style="fill:#939393; stroke:none;" d="M363 264C366.697 265.552 371.017 265 375 265C371.303 263.448 366.983 264 363 264z"/>
<path style="fill:#989898; stroke:none;" d="M628 264C629.769 264.779 631.036 264.912 633 265C631.231 264.221 629.964 264.088 628 264z"/>
</svg>
